<svg width="479" height="363" viewBox="0 0 479 363" fill="none" xmlns="http://www.w3.org/2000/svg">
<path d="M429.323 152.588C437.885 157.534 437.885 165.621 429.323 170.56L319.633 233.909C311.072 238.855 297.068 238.855 288.507 233.909L125.142 139.567C116.581 134.622 116.581 126.535 125.142 121.595L234.833 58.2524C243.394 53.3071 257.398 53.3071 265.959 58.2524L429.323 152.594V152.588Z" fill="#C2C8CF" stroke="black" stroke-linecap="round" stroke-linejoin="round"/>
<path d="M59.5371 299.737C65.0977 302.949 74.193 302.949 79.7536 299.737L150.608 258.817C156.169 255.605 156.169 250.354 150.608 247.141L96.2415 215.743C90.681 212.531 81.5856 212.531 76.025 215.743L5.17042 256.662C-0.390141 259.875 -0.390141 265.125 5.17042 268.338L59.5371 299.737Z" fill="white" stroke="black" stroke-linecap="round" stroke-linejoin="round"/>
<path d="M122.846 256.856C127.649 259.628 135.512 259.628 140.315 256.856C145.118 254.084 145.118 249.544 140.315 246.772L95.5835 220.941C90.7804 218.169 82.9181 218.169 78.115 220.941C73.3119 223.713 73.3119 228.253 78.115 231.025L122.846 256.856Z" fill="#C2C8CF" stroke="black" stroke-linecap="round" stroke-linejoin="round"/>
<path d="M86.3417 230.602C90.9239 230.602 94.6385 228.457 94.6385 225.81C94.6385 223.163 90.9239 221.017 86.3417 221.017C81.7595 221.017 78.0449 223.163 78.0449 225.81C78.0449 228.457 81.7595 230.602 86.3417 230.602Z" fill="black"/>
<path d="M91.9612 211.514V225.716C91.9612 227.507 89.4422 228.964 86.3419 228.964C83.2416 228.964 80.7227 227.513 80.7227 225.716V211.514H91.9612Z" fill="white"/>
<path d="M87.6514 211.514H91.9612V225.716C91.9612 227.249 90.1234 228.529 87.6514 228.87V211.514Z" fill="#C2C8CF"/>
<path d="M91.9612 211.514V225.716C91.9612 227.507 89.4422 228.964 86.3419 228.964C83.2416 228.964 80.7227 227.513 80.7227 225.716V211.514H91.9612Z" stroke="black" stroke-linecap="round" stroke-linejoin="round"/>
<path d="M86.3419 214.762C89.4454 214.762 91.9612 213.308 91.9612 211.514C91.9612 209.721 89.4454 208.267 86.3419 208.267C83.2385 208.267 80.7227 209.721 80.7227 211.514C80.7227 213.308 83.2385 214.762 86.3419 214.762Z" fill="white" stroke="black" stroke-linecap="round" stroke-linejoin="round"/>
<path d="M88.8544 206.569V210.951C88.8544 211.749 87.727 212.401 86.3412 212.401C84.9555 212.401 83.8281 211.749 83.8281 210.951V206.569H88.8544Z" fill="white"/>
<path d="M88.8544 206.569V210.951C88.8544 211.749 87.727 212.401 86.3412 212.401C84.9555 212.401 83.8281 211.749 83.8281 210.951V206.569H88.8544Z" stroke="black" stroke-linecap="round" stroke-linejoin="round"/>
<path d="M86.3412 208.02C87.7292 208.02 88.8544 207.37 88.8544 206.569C88.8544 205.768 87.7292 205.119 86.3412 205.119C84.9533 205.119 83.8281 205.768 83.8281 206.569C83.8281 207.37 84.9533 208.02 86.3412 208.02Z" fill="black" stroke="black" stroke-linecap="round" stroke-linejoin="round"/>
<path d="M109.024 243.7C113.607 243.7 117.321 241.554 117.321 238.907C117.321 236.26 113.607 234.115 109.024 234.115C104.442 234.115 100.728 236.26 100.728 238.907C100.728 241.554 104.442 243.7 109.024 243.7Z" fill="black"/>
<path d="M114.644 224.618V238.819C114.644 240.611 112.125 242.067 109.025 242.067C105.924 242.067 103.405 240.616 103.405 238.819V224.618H114.644Z" fill="white"/>
<path d="M110.334 224.618H114.644V238.819C114.644 240.352 112.806 241.633 110.334 241.973V224.618Z" fill="#C2C8CF"/>
<path d="M114.644 224.618V238.819C114.644 240.611 112.125 242.067 109.025 242.067C105.924 242.067 103.405 240.616 103.405 238.819V224.618H114.644Z" stroke="black" stroke-linecap="round" stroke-linejoin="round"/>
<path d="M109.025 227.866C112.128 227.866 114.644 226.411 114.644 224.618C114.644 222.824 112.128 221.37 109.025 221.37C105.921 221.37 103.405 222.824 103.405 224.618C103.405 226.411 105.921 227.866 109.025 227.866Z" fill="white" stroke="black" stroke-linecap="round" stroke-linejoin="round"/>
<path d="M111.537 219.667V224.048C111.537 224.847 110.41 225.499 109.024 225.499C107.638 225.499 106.511 224.847 106.511 224.048V219.667H111.537Z" fill="white"/>
<path d="M111.537 219.667V224.048C111.537 224.847 110.41 225.499 109.024 225.499C107.638 225.499 106.511 224.847 106.511 224.048V219.667H111.537Z" stroke="black" stroke-linecap="round" stroke-linejoin="round"/>
<path d="M109.024 221.117C110.412 221.117 111.537 220.468 111.537 219.667C111.537 218.865 110.412 218.216 109.024 218.216C107.636 218.216 106.511 218.865 106.511 219.667C106.511 220.468 107.636 221.117 109.024 221.117Z" fill="black" stroke="black" stroke-linecap="round" stroke-linejoin="round"/>
<path d="M130.967 256.374C135.549 256.374 139.264 254.229 139.264 251.582C139.264 248.935 135.549 246.789 130.967 246.789C126.385 246.789 122.67 248.935 122.67 251.582C122.67 254.229 126.385 256.374 130.967 256.374Z" fill="black"/>
<path d="M130.967 254.119C133.393 254.119 135.359 252.983 135.359 251.582C135.359 250.18 133.393 249.045 130.967 249.045C128.542 249.045 126.575 250.18 126.575 251.582C126.575 252.983 128.542 254.119 130.967 254.119Z" fill="#E9EAEB"/>
<path d="M130.967 253.138C132.456 253.138 133.662 252.441 133.662 251.582C133.662 250.722 132.456 250.025 130.967 250.025C129.479 250.025 128.272 250.722 128.272 251.582C128.272 252.441 129.479 253.138 130.967 253.138Z" fill="black"/>
<path d="M65.7734 293.593C67.8227 294.773 71.1696 294.773 73.213 293.593L101.233 277.412C103.282 276.232 103.282 274.3 101.233 273.113L97.4516 270.928C95.4024 269.748 92.0555 269.748 90.0121 270.928L61.992 287.109C59.9428 288.29 59.9428 290.222 61.992 291.408L65.7734 293.593Z" fill="white" stroke="black" stroke-linecap="round" stroke-linejoin="round"/>
<path d="M102.701 272.15L99.7949 272.285L97.4521 270.934C95.4028 269.754 92.0559 269.754 90.0126 270.934L76.1963 278.916L87.4231 285.4L101.239 277.418C102.261 276.825 102.772 276.05 102.772 275.269L102.701 272.156V272.15Z" fill="black" stroke="black" stroke-linecap="round" stroke-linejoin="round"/>
<path d="M87.4172 285.388L101.234 274.634C103.189 273.236 103.189 271.092 101.234 269.965L97.4521 267.78C95.4028 266.6 91.8739 266.699 90.0126 268.15L76.1963 278.904L87.4231 285.388H87.4172Z" fill="white" stroke="black" stroke-linecap="round" stroke-linejoin="round"/>
<path d="M42.4971 280.155C44.5463 281.336 47.8932 281.336 49.9366 280.155L77.9567 263.974C80.0059 262.794 80.0059 260.861 77.9567 259.675L74.1753 257.49C72.126 256.31 68.7791 256.31 66.7357 257.49L38.7156 273.671C36.6664 274.851 36.6664 276.784 38.7156 277.97L42.4971 280.155Z" fill="white" stroke="black" stroke-linecap="round" stroke-linejoin="round"/>
<path d="M79.4251 258.706L76.5186 258.841L74.1757 257.49C72.1265 256.31 68.7796 256.31 66.7362 257.49L52.9199 265.472L64.1467 271.956L77.963 263.974C78.9847 263.381 79.4955 262.606 79.4955 261.825L79.4251 258.712V258.706Z" fill="black" stroke="black" stroke-linecap="round" stroke-linejoin="round"/>
<path d="M64.1467 271.95L77.963 261.196C79.9183 259.798 79.9183 257.655 77.963 256.527L74.1816 254.342C72.1323 253.162 68.6034 253.262 66.742 254.712L52.9258 265.466L64.1526 271.95H64.1467Z" fill="white" stroke="black" stroke-linecap="round" stroke-linejoin="round"/>
<path d="M54.5461 250.448C56.5954 249.268 56.5954 247.335 54.5461 246.149L50.7647 243.964C48.7155 242.784 45.3685 242.784 43.3252 243.964L17.6597 258.788H13.7256L13.7726 262.318C13.7843 263.087 14.2951 263.857 15.3051 264.444L19.0865 266.629C21.1358 267.81 24.4827 267.81 26.526 266.629L54.5461 250.448Z" fill="white" stroke="black" stroke-linecap="round" stroke-linejoin="round"/>
<path d="M45.8966 245.145C45.4269 245.544 45.4856 246.126 46.0141 246.437L50.6352 249.109C51.146 249.403 51.9504 249.35 52.4143 248.98C52.8782 248.61 52.8312 248.087 52.3321 247.799L47.4879 245.004C47.0182 244.733 46.3018 244.798 45.8966 245.15V245.145Z" fill="white"/>
<path d="M22.3105 263.974V267.475" stroke="black" stroke-linecap="round" stroke-linejoin="round"/>
<path d="M23.6553 267.475C24.7063 267.375 25.7221 267.099 26.5266 266.629L40.7304 258.43L23.6553 258.988V267.475Z" fill="black" stroke="black" stroke-linecap="round" stroke-linejoin="round"/>
<path d="M19.0807 262.841C21.13 264.021 24.3066 264.561 26.5202 263.733L40.724 258.43L29.4972 251.946L15.2934 257.249C12.933 258.13 13.4497 259.593 15.2934 260.656L19.0748 262.841H19.0807Z" fill="white" stroke="black" stroke-linecap="round" stroke-linejoin="round"/>
<path d="M320.701 105.579H314.783L237.763 149.111L192.174 127.122V178.278L260.193 217.558L320.701 182.618V105.579Z" fill="white"/>
<path d="M235.132 153.358V203.086" stroke="#C2C8CF" stroke-linecap="round" stroke-linejoin="round"/>
<path d="M320.701 105.579H314.783L237.763 149.111V204.608L260.193 217.558L320.701 182.618V105.579Z" fill="#C2C8CF"/>
<path d="M320.701 105.579H314.783L237.763 149.111L192.174 127.122V178.278L260.193 217.558L320.701 182.618V105.579Z" stroke="black" stroke-miterlimit="10"/>
<path d="M317.495 110.277C321.776 107.805 321.776 103.758 317.495 101.285L282.705 81.1931C278.425 78.7205 271.414 78.7205 267.133 81.1931L195.386 122.629C191.106 125.101 191.106 129.148 195.386 131.621L230.176 151.713C234.457 154.186 241.468 154.186 245.748 151.713L317.495 110.277Z" fill="black" stroke="black" stroke-linecap="round" stroke-linejoin="round"/>
<path d="M319.633 233.909L382.12 197.824V141.041H376.202L299.182 184.58L253.593 162.59V213.746L288.507 233.909C297.068 238.854 311.072 238.854 319.633 233.909Z" fill="white"/>
<path d="M319.633 233.909L382.12 197.824V141.041H376.202L299.182 184.58V237.286C306.316 238.214 314.108 237.098 319.633 233.909Z" fill="#C2C8CF"/>
<path d="M296.551 188.826V236.593" stroke="#C2C8CF" stroke-linecap="round" stroke-linejoin="round"/>
<path d="M319.633 233.909L382.12 197.824V141.041H376.202L299.182 184.58L253.593 162.59V213.746L288.507 233.909C297.068 238.854 311.072 238.854 319.633 233.909V233.909Z" stroke="black" stroke-miterlimit="10"/>
<path d="M256.805 167.089L291.595 187.182C295.876 189.654 302.887 189.654 307.167 187.182L378.914 145.746C383.195 143.273 383.195 139.227 378.914 136.754L344.124 116.661C339.844 114.189 332.833 114.189 328.552 116.661L256.805 158.097C252.525 160.57 252.525 164.617 256.805 167.089Z" fill="black" stroke="black" stroke-linecap="round" stroke-linejoin="round"/>
<path d="M334.729 225.193L315.012 215.684V235.935C316.662 235.389 318.224 234.725 319.633 233.915L334.729 225.199V225.193Z" fill="white" stroke="black" stroke-linecap="round" stroke-linejoin="round"/>
<path d="M405.543 169.75C401.262 167.277 394.251 167.277 389.971 169.75L318.224 211.186C313.943 213.658 313.943 217.705 318.224 220.177L330.819 227.449L418.138 177.021L405.543 169.75Z" fill="#E9EAEB" stroke="black" stroke-linecap="round" stroke-linejoin="round"/>
<path d="M125.142 124.015L234.832 60.6661C243.394 55.7209 257.398 55.7209 265.959 60.6661L429.323 155.008C433.075 157.175 435.177 159.942 435.641 162.784C436.24 159.137 434.132 155.366 429.323 152.588L265.959 58.2463C257.398 53.301 243.394 53.301 234.832 58.2463L125.142 121.589C120.333 124.367 118.225 128.138 118.824 131.785C119.288 128.942 121.396 126.17 125.142 124.009V124.015Z" fill="white" stroke="black" stroke-linecap="round" stroke-linejoin="round"/>
<path d="M248.614 54.5873C243.581 54.8222 238.661 56.0321 234.832 58.2463L125.142 121.589C120.333 124.367 118.225 128.138 118.824 131.785C119.288 128.942 121.396 126.17 125.142 124.009L234.832 60.6604C238.661 58.4521 243.581 57.2363 248.614 57.0014V54.5815V54.5873Z" fill="black" stroke="black" stroke-linecap="round" stroke-linejoin="round"/>
<path d="M139.117 136.413C144.734 136.413 149.287 133.784 149.287 130.54C149.287 127.297 144.734 124.667 139.117 124.667C133.5 124.667 128.947 127.297 128.947 130.54C128.947 133.784 133.5 136.413 139.117 136.413Z" fill="white" stroke="black" stroke-linecap="round" stroke-linejoin="round"/>
<path d="M201.336 147.598C202.872 146.711 202.871 143.833 201.334 141.17C199.797 138.507 197.306 137.067 195.769 137.954C194.233 138.841 194.234 141.719 195.771 144.383C197.308 147.046 199.8 148.485 201.336 147.598Z" fill="black"/>
<path d="M187.858 144.648L196.695 139.544C197.723 138.951 199.396 139.914 200.424 141.699C201.452 143.485 201.452 145.411 200.424 146.004L191.587 151.108L187.858 144.648Z" fill="white" stroke="black" stroke-miterlimit="10"/>
<path d="M191.581 151.11C192.611 150.515 192.612 148.586 191.583 146.803C190.553 145.019 188.883 144.055 187.852 144.65C186.821 145.246 186.821 147.174 187.85 148.958C188.88 150.742 190.55 151.705 191.581 151.11Z" fill="white" stroke="black" stroke-linecap="round" stroke-linejoin="round"/>
<path d="M86.3416 206.881C85.3669 206.881 84.5801 206.094 84.5801 205.119C84.5801 197.448 87.5982 191.404 92.6479 188.961C97.9031 186.418 104.573 187.998 111.426 193.419C119.599 199.886 124.866 202.188 132.664 197.777L163.972 180.081C169.656 176.868 171.694 171.3 173.854 165.404C176.232 158.92 178.687 152.212 186.021 147.978L188.135 146.756C188.98 146.269 190.055 146.556 190.542 147.402C191.029 148.248 190.742 149.323 189.896 149.81L187.782 151.032C181.552 154.626 179.421 160.452 177.16 166.619C174.876 172.857 172.516 179.3 165.704 183.153L134.396 200.849C124.948 206.187 118.266 203.327 109.236 196.185C103.499 191.645 98.1497 190.206 94.1745 192.133C90.3696 193.977 88.0973 198.828 88.0973 205.119C88.0973 206.094 87.3104 206.881 86.3357 206.881H86.3416Z" fill="black"/>
<path d="M109.024 219.978C108.05 219.978 107.263 219.191 107.263 218.216C107.263 210.545 110.281 204.502 115.33 202.059C120.586 199.51 127.256 201.095 134.108 206.516C142.282 212.983 147.549 215.285 155.347 210.874L203.724 183.528C209.426 180.31 214.875 179.881 219.073 182.33C222.878 184.55 225.156 188.961 225.156 194.124V197.313L221.615 195.269C221.615 195.269 221.633 194.259 221.633 194.124C221.633 190.23 220.012 186.958 217.3 185.373C214.229 183.581 210.024 184.016 205.462 186.594L157.085 213.94C147.643 219.279 140.955 216.419 131.924 209.277C126.187 204.737 120.838 203.298 116.863 205.224C113.058 207.068 110.786 211.92 110.786 218.21C110.786 219.185 109.999 219.972 109.024 219.972V219.978Z" fill="black"/>
<path d="M182.709 198.617C182.298 198.617 181.899 198.4 181.687 198.018C181.37 197.454 181.57 196.737 182.134 196.414L190.947 191.434C191.511 191.117 192.227 191.317 192.55 191.88C192.867 192.444 192.667 193.161 192.104 193.484L183.29 198.464C183.108 198.57 182.909 198.617 182.715 198.617H182.709Z" fill="white"/>
<path d="M109.024 219.39C108.378 219.39 107.85 218.862 107.85 218.216C107.85 210.774 110.739 204.93 115.583 202.587C120.627 200.144 127.074 201.706 133.744 206.98C142.129 213.611 147.543 215.966 155.64 211.391L177.788 198.875C178.352 198.558 179.068 198.758 179.391 199.322C179.708 199.885 179.509 200.602 178.945 200.925L156.797 213.441C147.643 218.615 141.119 215.814 132.288 208.825C126.363 204.144 120.797 202.675 116.61 204.701C112.594 206.646 110.198 211.696 110.198 218.216C110.198 218.862 109.67 219.39 109.024 219.39Z" fill="white"/>
<path d="M273.07 79.0496V95.0128C273.07 96.6985 270.703 98.067 267.779 98.067C264.855 98.067 262.489 96.6985 262.489 95.0128V79.0496H273.07Z" fill="white"/>
<path d="M273.07 79.0496V95.0128C273.07 96.6985 270.703 98.067 267.779 98.067C264.855 98.067 262.489 96.6985 262.489 95.0128V79.0496H273.07Z" stroke="black" stroke-linecap="round" stroke-linejoin="round"/>
<path d="M267.779 82.1035C270.701 82.1035 273.07 80.7363 273.07 79.0496C273.07 77.3628 270.701 75.9954 267.779 75.9954C264.857 75.9954 262.489 77.3628 262.489 79.0496C262.489 80.7363 264.857 82.1035 267.779 82.1035Z" fill="white" stroke="black" stroke-linecap="round" stroke-linejoin="round"/>
<path d="M301.618 60.6487V76.612C301.618 78.2976 299.252 79.6662 296.328 79.6662C293.403 79.6662 291.037 78.2976 291.037 76.612V60.6487H301.618Z" fill="white"/>
<path d="M301.618 60.6487V76.612C301.618 78.2976 299.252 79.6662 296.328 79.6662C293.403 79.6662 291.037 78.2976 291.037 76.612V60.6487H301.618Z" stroke="black" stroke-linecap="round" stroke-linejoin="round"/>
<path d="M296.328 63.7026C299.249 63.7026 301.618 62.3354 301.618 60.6487C301.618 58.962 299.249 57.5945 296.328 57.5945C293.406 57.5945 291.037 58.962 291.037 60.6487C291.037 62.3354 293.406 63.7026 296.328 63.7026Z" fill="white" stroke="black" stroke-linecap="round" stroke-linejoin="round"/>
<path d="M263.552 108.14V124.103C263.552 125.789 261.185 127.157 258.261 127.157C255.337 127.157 252.971 125.789 252.971 124.103V108.14H263.552Z" fill="white"/>
<path d="M263.552 108.14V124.103C263.552 125.789 261.185 127.157 258.261 127.157C255.337 127.157 252.971 125.789 252.971 124.103V108.14H263.552Z" stroke="black" stroke-linecap="round" stroke-linejoin="round"/>
<path d="M258.261 111.194C261.183 111.194 263.552 109.826 263.552 108.14C263.552 106.453 261.183 105.085 258.261 105.085C255.339 105.085 252.971 106.453 252.971 108.14C252.971 109.826 255.339 111.194 258.261 111.194Z" fill="white" stroke="black" stroke-linecap="round" stroke-linejoin="round"/>
<path d="M317.495 61.7996C321.776 59.327 321.776 55.2803 317.495 52.8076L282.705 32.7153C278.425 30.2427 271.414 30.2427 267.133 32.7153L195.386 74.1509C191.106 76.6235 191.106 80.6702 195.386 83.1429L230.176 103.235C234.457 105.708 241.468 105.708 245.748 103.235L317.495 61.7996Z" fill="white" stroke="black" stroke-linecap="round" stroke-linejoin="round"/>
<path d="M311.137 4.05396V27.8056C311.137 29.4912 308.77 30.8595 305.846 30.8595C302.922 30.8595 300.556 29.4912 300.556 27.8056V4.05396H311.137Z" fill="white"/>
<path d="M311.137 4.05396V27.8056C311.137 29.4912 308.77 30.8595 305.846 30.8595C302.922 30.8595 300.556 29.4912 300.556 27.8056V4.05396H311.137Z" stroke="black" stroke-linecap="round" stroke-linejoin="round"/>
<path d="M305.846 7.10811C308.768 7.10811 311.137 5.74064 311.137 4.05391C311.137 2.36719 308.768 1 305.846 1C302.924 1 300.556 2.36719 300.556 4.05391C300.556 5.74064 302.924 7.10811 305.846 7.10811Z" fill="white" stroke="black" stroke-linecap="round" stroke-linejoin="round"/>
<path d="M301.618 36.21V62.5633C301.618 64.2489 299.252 65.6175 296.328 65.6175C293.403 65.6175 291.037 64.2489 291.037 62.5633V36.21H301.618Z" fill="white"/>
<path d="M301.618 36.21V62.5633C301.618 64.2489 299.252 65.6175 296.328 65.6175C293.403 65.6175 291.037 64.2489 291.037 62.5633V36.21H301.618Z" stroke="black" stroke-linecap="round" stroke-linejoin="round"/>
<path d="M296.328 39.2641C299.249 39.2641 301.618 37.8966 301.618 36.2099C301.618 34.5232 299.249 33.156 296.328 33.156C293.406 33.156 291.037 34.5232 291.037 36.2099C291.037 37.8966 293.406 39.2641 296.328 39.2641Z" fill="white" stroke="black" stroke-linecap="round" stroke-linejoin="round"/>
<path d="M292.1 23.2242V49.5775C292.1 51.2632 289.734 52.6317 286.809 52.6317C283.885 52.6317 281.519 51.2632 281.519 49.5775V23.2242H292.1Z" fill="white"/>
<path d="M292.1 23.2242V49.5775C292.1 51.2632 289.734 52.6317 286.809 52.6317C283.885 52.6317 281.519 51.2632 281.519 49.5775V23.2242H292.1Z" stroke="black" stroke-linecap="round" stroke-linejoin="round"/>
<path d="M286.815 26.2784C289.737 26.2784 292.106 24.9109 292.106 23.2242C292.106 21.5375 289.737 20.1703 286.815 20.1703C283.894 20.1703 281.525 21.5375 281.525 23.2242C281.525 24.9109 283.894 26.2784 286.815 26.2784Z" fill="white" stroke="black" stroke-linecap="round" stroke-linejoin="round"/>
<path d="M282.588 57.5887V73.552C282.588 75.2376 280.221 76.6062 277.297 76.6062C274.373 76.6062 272.007 75.2376 272.007 73.552V57.5887H282.588Z" fill="white"/>
<path d="M282.588 57.5887V73.552C282.588 75.2376 280.221 76.6062 277.297 76.6062C274.373 76.6062 272.007 75.2376 272.007 73.552V57.5887H282.588Z" stroke="black" stroke-linecap="round" stroke-linejoin="round"/>
<path d="M277.297 60.6427C280.219 60.6427 282.588 59.2755 282.588 57.5887C282.588 55.902 280.219 54.5345 277.297 54.5345C274.375 54.5345 272.007 55.902 272.007 57.5887C272.007 59.2755 274.375 60.6427 277.297 60.6427Z" fill="white" stroke="black" stroke-linecap="round" stroke-linejoin="round"/>
<path d="M273.07 72.1777V79.0495C273.07 80.7352 270.703 82.1035 267.779 82.1035C264.855 82.1035 262.489 80.7352 262.489 79.0495V72.1777H273.07Z" fill="white"/>
<path d="M273.07 72.1777V79.0495C273.07 80.7352 270.703 82.1035 267.779 82.1035C264.855 82.1035 262.489 80.7352 262.489 79.0495V72.1777H273.07Z" stroke="black" stroke-linecap="round" stroke-linejoin="round"/>
<path d="M267.779 75.2319C270.701 75.2319 273.07 73.8645 273.07 72.1777C273.07 70.491 270.701 69.1235 267.779 69.1235C264.857 69.1235 262.489 70.491 262.489 72.1777C262.489 73.8645 264.857 75.2319 267.779 75.2319Z" fill="white" stroke="black" stroke-linecap="round" stroke-linejoin="round"/>
<path d="M221.979 88.7636C231.922 88.7636 239.982 84.1095 239.982 78.3682C239.982 72.6268 231.922 67.9724 221.979 67.9724C212.037 67.9724 203.977 72.6268 203.977 78.3682C203.977 84.1095 212.037 88.7636 221.979 88.7636Z" fill="black"/>
<path d="M339.896 136.613V149.981C339.896 151.666 337.53 153.035 334.606 153.035C331.682 153.035 329.315 151.666 329.315 149.981V136.613H339.896Z" fill="white"/>
<path d="M335.839 136.613H339.896V149.981C339.896 151.42 338.164 152.629 335.839 152.947V136.613Z" fill="#C2C8CF"/>
<path d="M339.896 136.613V149.981C339.896 151.666 337.53 153.035 334.606 153.035C331.682 153.035 329.315 151.666 329.315 149.981V136.613H339.896Z" stroke="black" stroke-linecap="round" stroke-linejoin="round"/>
<path d="M334.606 139.667C337.528 139.667 339.896 138.3 339.896 136.613C339.896 134.926 337.528 133.559 334.606 133.559C331.684 133.559 329.315 134.926 329.315 136.613C329.315 138.3 331.684 139.667 334.606 139.667Z" fill="white" stroke="black" stroke-linecap="round" stroke-linejoin="round"/>
<path d="M320.86 150.128V169.985C320.86 171.67 318.494 173.039 315.57 173.039C312.646 173.039 310.279 171.67 310.279 169.985V150.128H320.86Z" fill="white"/>
<path d="M316.803 150.127H320.86V169.985C320.86 171.424 319.128 172.634 316.803 172.951V150.121V150.127Z" fill="#C2C8CF"/>
<path d="M320.86 150.128V169.985C320.86 171.67 318.494 173.039 315.57 173.039C312.646 173.039 310.279 171.67 310.279 169.985V150.128H320.86Z" stroke="black" stroke-linecap="round" stroke-linejoin="round"/>
<path d="M315.57 153.181C318.492 153.181 320.86 151.814 320.86 150.128C320.86 148.441 318.492 147.073 315.57 147.073C312.648 147.073 310.279 148.441 310.279 150.128C310.279 151.814 312.648 153.181 315.57 153.181Z" fill="white" stroke="black" stroke-linecap="round" stroke-linejoin="round"/>
<path d="M378.914 121.401C383.195 118.929 383.195 114.882 378.914 112.409L344.124 92.317C339.844 89.8444 332.833 89.8444 328.552 92.317L256.805 133.753C252.525 136.225 252.525 140.272 256.805 142.745L291.595 162.837C295.876 165.31 302.887 165.31 307.167 162.837L378.914 121.401Z" fill="white" stroke="black" stroke-linecap="round" stroke-linejoin="round"/>
<path d="M368.451 103.018V116.386C368.451 118.071 366.085 119.44 363.161 119.44C360.236 119.44 357.87 118.071 357.87 116.386V103.018H368.451Z" fill="white"/>
<path d="M368.451 103.018V116.386C368.451 118.071 366.085 119.44 363.161 119.44C360.236 119.44 357.87 118.071 357.87 116.386V103.018H368.451Z" stroke="black" stroke-linecap="round" stroke-linejoin="round"/>
<path d="M363.161 106.072C366.082 106.072 368.451 104.705 368.451 103.018C368.451 101.331 366.082 99.9641 363.161 99.9641C360.239 99.9641 357.87 101.331 357.87 103.018C357.87 104.705 360.239 106.072 363.161 106.072Z" fill="white" stroke="black" stroke-linecap="round" stroke-linejoin="round"/>
<path d="M358.933 82.55V108.903C358.933 110.589 356.567 111.957 353.643 111.957C350.718 111.957 348.352 110.589 348.352 108.903V82.55H358.933Z" fill="white"/>
<path d="M358.933 82.55V108.903C358.933 110.589 356.567 111.957 353.643 111.957C350.718 111.957 348.352 110.589 348.352 108.903V82.55H358.933Z" stroke="black" stroke-linecap="round" stroke-linejoin="round"/>
<path d="M353.643 85.6039C356.564 85.6039 358.933 84.2367 358.933 82.55C358.933 80.8633 356.564 79.4958 353.643 79.4958C350.721 79.4958 348.352 80.8633 348.352 82.55C348.352 84.2367 350.721 85.6039 353.643 85.6039Z" fill="white" stroke="black" stroke-linecap="round" stroke-linejoin="round"/>
<path d="M349.414 101.027V127.38C349.414 129.066 347.048 130.434 344.124 130.434C341.2 130.434 338.833 129.066 338.833 127.38V101.027H349.414Z" fill="white"/>
<path d="M349.414 101.027V127.38C349.414 129.066 347.048 130.434 344.124 130.434C341.2 130.434 338.833 129.066 338.833 127.38V101.027H349.414Z" stroke="black" stroke-linecap="round" stroke-linejoin="round"/>
<path d="M344.124 104.081C347.046 104.081 349.414 102.714 349.414 101.027C349.414 99.3404 347.046 97.973 344.124 97.973C341.202 97.973 338.833 99.3404 338.833 101.027C338.833 102.714 341.202 104.081 344.124 104.081Z" fill="white" stroke="black" stroke-linecap="round" stroke-linejoin="round"/>
<path d="M339.896 124.05V132.872C339.896 134.557 337.53 135.926 334.606 135.926C331.682 135.926 329.315 134.557 329.315 132.872V124.05H339.896Z" fill="white"/>
<path d="M339.896 124.05V132.872C339.896 134.557 337.53 135.926 334.606 135.926C331.682 135.926 329.315 134.557 329.315 132.872V124.05H339.896Z" stroke="black" stroke-linecap="round" stroke-linejoin="round"/>
<path d="M334.606 127.104C337.528 127.104 339.896 125.737 339.896 124.05C339.896 122.363 337.528 120.996 334.606 120.996C331.684 120.996 329.315 122.363 329.315 124.05C329.315 125.737 331.684 127.104 334.606 127.104Z" fill="white" stroke="black" stroke-linecap="round" stroke-linejoin="round"/>
<path d="M330.378 118.512V138.369C330.378 140.055 328.012 141.423 325.088 141.423C322.164 141.423 319.797 140.055 319.797 138.369V118.512H330.378Z" fill="white"/>
<path d="M330.378 118.512V138.369C330.378 140.055 328.012 141.423 325.088 141.423C322.164 141.423 319.797 140.055 319.797 138.369V118.512H330.378Z" stroke="black" stroke-linecap="round" stroke-linejoin="round"/>
<path d="M325.088 121.566C328.01 121.566 330.378 120.199 330.378 118.512C330.378 116.825 328.01 115.458 325.088 115.458C322.166 115.458 319.797 116.825 319.797 118.512C319.797 120.199 322.166 121.566 325.088 121.566Z" fill="white" stroke="black" stroke-linecap="round" stroke-linejoin="round"/>
<path d="M320.86 140.237V143.867C320.86 145.552 318.494 146.92 315.57 146.92C312.646 146.92 310.279 145.552 310.279 143.867V140.237H320.86Z" fill="white"/>
<path d="M320.86 140.237V143.867C320.86 145.552 318.494 146.92 315.57 146.92C312.646 146.92 310.279 145.552 310.279 143.867V140.237H320.86Z" stroke="black" stroke-linecap="round" stroke-linejoin="round"/>
<path d="M315.57 143.291C318.492 143.291 320.86 141.923 320.86 140.237C320.86 138.55 318.492 137.183 315.57 137.183C312.648 137.183 310.279 138.55 310.279 140.237C310.279 141.923 312.648 143.291 315.57 143.291Z" fill="white" stroke="black" stroke-linecap="round" stroke-linejoin="round"/>
<path d="M161.072 117.713C162.105 117.384 163.326 117.455 164.213 117.972C164.888 118.365 165.141 118.758 165.076 119.217C165.023 119.669 164.595 120.162 163.82 120.609L160.484 122.535L153.256 118.336L156.509 116.456C157.296 116.004 158.083 115.769 158.793 115.746C159.545 115.722 160.162 115.869 160.725 116.198C161.465 116.627 161.483 117.167 161.031 117.695L161.06 117.713H161.072ZM162.446 119.998C163.156 119.587 163.191 119.111 162.604 118.77C161.917 118.371 161.054 118.459 160.385 118.847L158.729 119.804L160.749 120.979L162.446 119.998ZM155.928 118.177L157.648 119.176L159.246 118.254C159.886 117.884 160.021 117.455 159.457 117.126C158.923 116.814 158.212 116.862 157.56 117.237L155.934 118.177" fill="black"/>
<path d="M171.018 115.563C171.412 115.792 171.711 115.892 171.923 115.875L171.97 115.904L170.637 116.673C170.455 116.661 170.161 116.55 169.897 116.433L169.873 116.444C170.003 116.826 169.932 117.219 169.034 117.736C167.965 118.353 166.656 118.465 165.628 117.866C164.489 117.202 165.059 116.45 166.057 115.687C166.802 115.117 167.125 114.847 166.732 114.618C166.356 114.4 165.822 114.43 165.241 114.764C164.589 115.14 164.507 115.458 164.959 115.769L163.726 116.48C162.857 115.928 162.739 115.07 164.266 114.189C165.834 113.284 167.155 113.325 168.37 114.03L171.007 115.563H171.018ZM168.658 115.698L167.883 115.246C167.783 115.469 167.484 115.734 167.219 115.98C166.656 116.491 166.462 116.791 166.949 117.073C167.437 117.355 167.936 117.267 168.423 116.985C169.216 116.527 169.169 115.992 168.664 115.698" fill="black"/>
<path d="M167.143 110.313L174.371 114.518L172.985 115.317L165.763 111.111L167.143 110.313Z" fill="black"/>
<path d="M179.263 110.8C179.656 111.029 179.955 111.129 180.167 111.111L180.214 111.141L178.881 111.91C178.699 111.898 178.405 111.787 178.141 111.669L178.118 111.681C178.247 112.063 178.176 112.456 177.278 112.973C176.209 113.59 174.9 113.702 173.872 113.102C172.733 112.439 173.303 111.687 174.301 110.924C175.047 110.354 175.37 110.083 174.976 109.854C174.583 109.625 174.066 109.666 173.485 110.001C172.833 110.377 172.751 110.694 173.203 111.006L171.97 111.716C171.101 111.164 170.983 110.307 172.51 109.426C174.078 108.521 175.399 108.562 176.614 109.267L179.251 110.8H179.263ZM176.902 110.935L176.127 110.483C176.027 110.706 175.728 110.971 175.464 111.217C174.9 111.728 174.706 112.028 175.193 112.31C175.681 112.591 176.18 112.503 176.667 112.222C177.46 111.763 177.413 111.229 176.908 110.935" fill="black"/>
<path d="M178.816 105.778C179.896 105.156 181.423 105.209 182.556 105.866L185.944 107.834L184.559 108.633L181.376 106.783C180.818 106.46 180.102 106.419 179.521 106.753C178.91 107.106 178.945 107.646 179.656 108.057L182.597 109.766L181.212 110.565L176.027 107.552L177.383 106.771L178.094 107.182L178.123 107.164C177.923 106.636 178.105 106.19 178.822 105.778H178.816Z" fill="black"/>
<path d="M184.124 102.713C185.481 101.932 187.089 101.902 188.393 102.449L187.042 103.23C186.496 103.018 185.798 103.024 185.287 103.318C184.453 103.799 184.664 104.416 185.663 104.997C186.643 105.567 187.7 105.72 188.54 105.232C189.098 104.909 189.203 104.51 188.71 104.116L190.043 103.347C191.053 104.04 191.07 105.05 189.673 105.855C188.023 106.806 185.809 106.707 184.259 105.808C182.715 104.909 182.539 103.629 184.124 102.713Z" fill="black"/>
<path d="M194.312 101.943C194.852 101.632 194.922 101.309 194.682 100.992L196.044 100.205C196.772 100.851 196.725 101.779 195.38 102.554C193.648 103.553 191.47 103.418 189.925 102.519C188.393 101.626 188.246 100.328 189.773 99.4473C191.452 98.4782 193.619 98.7011 195.474 99.7759L191.687 101.961C192.585 102.366 193.531 102.396 194.312 101.943ZM190.853 100.052C190.119 100.475 190.201 100.933 190.753 101.397L193.073 100.058C192.374 99.6999 191.482 99.688 190.853 100.052Z" fill="black"/>
<path d="M110.657 303.83L163.186 273.495C168.746 270.282 177.842 270.282 183.402 273.495L235.931 303.83H258.426V312.834C258.426 314.948 257.034 317.068 254.257 318.672L183.402 359.59C177.842 362.803 168.746 362.803 163.186 359.59L92.3311 318.672C89.5537 317.068 88.1621 314.948 88.1621 312.834V303.824H110.657V303.83Z" fill="white"/>
<path d="M172.21 361.799H173.566V352.989H172.21" fill="#E9EAEB"/>
<path d="M258.419 303.83V312.839C258.419 314.954 257.028 317.074 254.25 318.678L183.396 359.597C181.399 360.748 178.951 361.482 176.373 361.805V347.932L247.357 303.836H258.419V303.83Z" fill="#E9EAEB"/>
<path d="M110.657 303.83L163.186 273.495C168.746 270.282 177.842 270.282 183.402 273.495L235.931 303.83H258.426V312.834C258.426 314.948 257.034 317.068 254.257 318.672L183.402 359.59C177.842 362.803 168.746 362.803 163.186 359.59L92.3311 318.672C89.5537 317.068 88.1621 314.948 88.1621 312.834V303.824H110.657V303.83Z" stroke="black" stroke-linecap="round" stroke-linejoin="round"/>
<path d="M183.396 350.581C177.835 353.794 168.74 353.794 163.179 350.581L92.3247 309.662C86.7642 306.45 86.7642 301.199 92.3247 297.986L163.179 257.067C168.74 253.855 177.835 253.855 183.396 257.067L254.25 297.986C259.811 301.199 259.811 306.45 254.25 309.662L183.396 350.581Z" fill="white" stroke="black" stroke-linecap="round" stroke-linejoin="round"/>
<path d="M225.942 303.83L229.031 305.61L232.119 303.83L229.031 302.051L225.942 303.83Z" fill="black"/>
<path d="M222.86 302.051L225.943 303.83L229.031 302.051L225.943 300.265L222.86 302.051Z" fill="black"/>
<path d="M219.771 300.265L222.86 302.051L225.943 300.265L222.86 298.485L219.771 300.265Z" fill="black"/>
<path d="M216.683 298.485L219.771 300.265L222.86 298.485L219.771 296.706L216.683 298.485Z" fill="black"/>
<path d="M222.86 305.61L225.943 307.389L229.031 305.61L225.943 303.83L222.86 305.61Z" fill="black"/>
<path d="M213.6 300.265L216.683 302.051L219.771 300.265L216.683 298.485L213.6 300.265Z" fill="black"/>
<path d="M219.771 307.389L222.86 309.175L225.943 307.389L222.86 305.61L219.771 307.389Z" fill="black"/>
<path d="M210.512 302.051L213.6 303.83L216.683 302.051L213.6 300.265L210.512 302.051Z" fill="black"/>
<path d="M216.683 309.175L219.771 310.954L222.86 309.175L219.771 307.389L216.683 309.175Z" fill="black"/>
<path d="M213.6 307.389L216.683 309.175L219.771 307.389L216.683 305.61L213.6 307.389Z" fill="black"/>
<path d="M210.512 305.61L213.6 307.389L216.683 305.61L213.6 303.83L210.512 305.61Z" fill="black"/>
<path d="M207.423 303.83L210.511 305.61L213.6 303.83L210.511 302.051L207.423 303.83Z" fill="black"/>
<path d="M210.512 294.92L213.6 296.706L216.683 294.92L213.6 293.141L210.512 294.92Z" fill="black"/>
<path d="M201.252 289.576L204.34 291.361L207.423 289.576L204.34 287.796L201.252 289.576Z" fill="black"/>
<path d="M207.423 296.706L210.511 298.485L213.6 296.706L210.511 294.92L207.423 296.706Z" fill="black"/>
<path d="M198.169 291.361L201.252 293.141L204.34 291.361L201.252 289.576L198.169 291.361Z" fill="black"/>
<path d="M204.34 294.92L207.423 296.706L210.512 294.92L207.423 293.141L204.34 294.92Z" fill="black"/>
<path d="M201.252 296.706L204.34 298.485L207.423 296.706L204.34 294.92L201.252 296.706Z" fill="black"/>
<path d="M201.252 293.141L204.34 294.92L207.423 293.141L204.34 291.361L201.252 293.141Z" fill="black"/>
<path d="M195.081 293.141L198.169 294.92L201.252 293.141L198.169 291.361L195.081 293.141Z" fill="black"/>
<path d="M201.252 300.265L204.34 302.051L207.423 300.265L204.34 298.485L201.252 300.265Z" fill="black"/>
<path d="M195.081 296.706L198.169 298.485L201.252 296.706L198.169 294.92L195.081 296.706Z" fill="black"/>
<path d="M191.992 294.92L195.08 296.706L198.169 294.92L195.08 293.141L191.992 294.92Z" fill="black"/>
<path d="M195.081 286.016L198.169 287.796L201.252 286.016L198.169 284.231L195.081 286.016Z" fill="black"/>
<path d="M188.909 282.452L191.992 284.231L195.08 282.452L191.992 280.672L188.909 282.452Z" fill="black"/>
<path d="M185.821 280.672L188.909 282.451L191.992 280.672L188.909 278.892L185.821 280.672Z" fill="black"/>
<path d="M191.992 287.796L195.08 289.576L198.169 287.796L195.08 286.016L191.992 287.796Z" fill="black"/>
<path d="M182.732 282.452L185.82 284.231L188.909 282.452L185.82 280.672L182.732 282.452Z" fill="black"/>
<path d="M188.909 289.576L191.992 291.361L195.08 289.576L191.992 287.796L188.909 289.576Z" fill="black"/>
<path d="M188.909 286.016L191.992 287.796L195.08 286.016L191.992 284.231L188.909 286.016Z" fill="black"/>
<path d="M185.821 287.796L188.909 289.576L191.992 287.796L188.909 286.016L185.821 287.796Z" fill="black"/>
<path d="M182.732 286.016L185.82 287.796L188.909 286.016L185.82 284.231L182.732 286.016Z" fill="black"/>
<path d="M179.649 284.231L182.732 286.016L185.821 284.231L182.732 282.451L179.649 284.231Z" fill="black"/>
<path d="M185.821 291.361L188.909 293.141L191.992 291.361L188.909 289.576L185.821 291.361Z" fill="black"/>
<path d="M179.649 287.796L182.732 289.576L185.821 287.796L182.732 286.016L179.649 287.796Z" fill="black"/>
<path d="M179.649 277.107L182.732 278.892L185.821 277.107L182.732 275.327L179.649 277.107Z" fill="black"/>
<path d="M176.561 275.327L179.65 277.107L182.732 275.327L179.65 273.548L176.561 275.327Z" fill="black"/>
<path d="M173.472 273.548L176.561 275.327L179.649 273.548L176.561 271.762L173.472 273.548Z" fill="black"/>
<path d="M170.39 271.762L173.472 273.548L176.561 271.762L173.472 269.983L170.39 271.762Z" fill="black"/>
<path d="M176.561 278.892L179.65 280.672L182.732 278.892L179.65 277.107L176.561 278.892Z" fill="black"/>
<path d="M167.301 273.548L170.39 275.327L173.472 273.548L170.39 271.762L167.301 273.548Z" fill="black"/>
<path d="M173.472 280.672L176.561 282.451L179.649 280.672L176.561 278.892L173.472 280.672Z" fill="black"/>
<path d="M164.212 275.327L167.301 277.107L170.389 275.327L167.301 273.548L164.212 275.327Z" fill="black"/>
<path d="M170.39 282.452L173.472 284.231L176.561 282.452L173.472 280.672L170.39 282.452Z" fill="black"/>
<path d="M167.301 280.672L170.39 282.451L173.472 280.672L170.39 278.892L167.301 280.672Z" fill="black"/>
<path d="M164.212 278.892L167.301 280.672L170.389 278.892L167.301 277.107L164.212 278.892Z" fill="black"/>
<path d="M161.13 277.107L164.213 278.892L167.301 277.107L164.213 275.327L161.13 277.107Z" fill="black"/>
<path d="M210.512 312.734L213.6 314.519L216.683 312.734L213.6 310.954L210.512 312.734Z" fill="black"/>
<path d="M207.423 310.954L210.511 312.734L213.6 310.954L210.511 309.175L207.423 310.954Z" fill="black"/>
<path d="M207.423 314.519L210.511 316.299L213.6 314.519L210.511 312.734L207.423 314.519Z" fill="black"/>
<path d="M198.169 309.175L201.252 310.954L204.34 309.175L201.252 307.389L198.169 309.175Z" fill="black"/>
<path d="M204.34 312.734L207.423 314.519L210.512 312.734L207.423 310.954L204.34 312.734Z" fill="black"/>
<path d="M201.252 314.519L204.34 316.299L207.423 314.519L204.34 312.734L201.252 314.519Z" fill="black"/>
<path d="M201.252 310.954L204.34 312.734L207.423 310.954L204.34 309.175L201.252 310.954Z" fill="black"/>
<path d="M198.169 312.734L201.252 314.519L204.34 312.734L201.252 310.954L198.169 312.734Z" fill="black"/>
<path d="M195.081 310.954L198.169 312.734L201.252 310.954L198.169 309.175L195.081 310.954Z" fill="black"/>
<path d="M201.252 318.079L204.34 319.864L207.423 318.079L204.34 316.299L201.252 318.079Z" fill="black"/>
<path d="M195.081 314.519L198.169 316.299L201.252 314.519L198.169 312.734L195.081 314.519Z" fill="black"/>
<path d="M195.081 303.83L198.169 305.61L201.252 303.83L198.169 302.051L195.081 303.83Z" fill="black"/>
<path d="M191.992 302.051L195.08 303.83L198.169 302.051L195.08 300.265L191.992 302.051Z" fill="black"/>
<path d="M188.909 300.265L191.992 302.051L195.08 300.265L191.992 298.485L188.909 300.265Z" fill="black"/>
<path d="M185.821 298.485L188.909 300.265L191.992 298.485L188.909 296.706L185.821 298.485Z" fill="black"/>
<path d="M191.992 305.61L195.08 307.389L198.169 305.61L195.08 303.83L191.992 305.61Z" fill="black"/>
<path d="M182.732 300.265L185.82 302.051L188.909 300.265L185.82 298.485L182.732 300.265Z" fill="black"/>
<path d="M188.909 307.389L191.992 309.175L195.08 307.389L191.992 305.61L188.909 307.389Z" fill="black"/>
<path d="M188.909 303.83L191.992 305.61L195.08 303.83L191.992 302.051L188.909 303.83Z" fill="black"/>
<path d="M185.821 305.61L188.909 307.389L191.992 305.61L188.909 303.83L185.821 305.61Z" fill="black"/>
<path d="M182.732 303.83L185.82 305.61L188.909 303.83L185.82 302.051L182.732 303.83Z" fill="black"/>
<path d="M179.649 302.051L182.732 303.83L185.821 302.051L182.732 300.265L179.649 302.051Z" fill="black"/>
<path d="M179.649 305.61L182.732 307.389L185.821 305.61L182.732 303.83L179.649 305.61Z" fill="black"/>
<path d="M179.649 294.92L182.732 296.706L185.821 294.92L182.732 293.141L179.649 294.92Z" fill="black"/>
<path d="M167.301 291.361L170.39 293.141L173.472 291.361L170.39 289.576L167.301 291.361Z" fill="black"/>
<path d="M173.472 298.485L176.561 300.265L179.649 298.485L176.561 296.706L173.472 298.485Z" fill="black"/>
<path d="M173.472 294.92L176.561 296.706L179.649 294.92L176.561 293.141L173.472 294.92Z" fill="black"/>
<path d="M170.39 293.141L173.472 294.92L176.561 293.141L173.472 291.361L170.39 293.141Z" fill="black"/>
<path d="M167.301 294.92L170.39 296.706L173.472 294.92L170.39 293.141L167.301 294.92Z" fill="black"/>
<path d="M170.39 300.265L173.472 302.051L176.561 300.265L173.472 298.485L170.39 300.265Z" fill="black"/>
<path d="M167.301 298.485L170.39 300.265L173.472 298.485L170.39 296.706L167.301 298.485Z" fill="black"/>
<path d="M164.212 296.706L167.301 298.485L170.389 296.706L167.301 294.92L164.212 296.706Z" fill="black"/>
<path d="M164.212 286.016L167.301 287.796L170.389 286.016L167.301 284.231L164.212 286.016Z" fill="black"/>
<path d="M161.13 284.237L164.213 286.016L167.301 284.231L164.213 282.451L161.13 284.237Z" fill="black"/>
<path d="M158.042 282.452L161.13 284.237L164.213 282.452L161.13 280.672L158.042 282.452Z" fill="black"/>
<path d="M161.13 287.796L164.213 289.576L167.301 287.796L164.213 286.016L161.13 287.796Z" fill="black"/>
<path d="M151.87 282.452L154.959 284.237L158.041 282.452L154.959 280.672L151.87 282.452Z" fill="black"/>
<path d="M158.042 286.016L161.13 287.796L164.213 286.016L161.13 284.237L158.042 286.016Z" fill="black"/>
<path d="M154.958 287.796L158.041 289.576L161.13 287.796L158.041 286.016L154.958 287.796Z" fill="black"/>
<path d="M151.87 286.016L154.959 287.796L158.041 286.016L154.959 284.237L151.87 286.016Z" fill="black"/>
<path d="M154.958 291.361L158.041 293.141L161.13 291.361L158.041 289.576L154.958 291.361Z" fill="black"/>
<path d="M148.782 287.796L151.87 289.576L154.959 287.796L151.87 286.016L148.782 287.796Z" fill="black"/>
<path d="M145.699 286.016L148.781 287.796L151.87 286.016L148.781 284.237L145.699 286.016Z" fill="black"/>
<path d="M195.081 321.644L198.169 323.423L201.252 321.644L198.169 319.864L195.081 321.644Z" fill="black"/>
<path d="M188.909 318.079L191.992 319.864L195.08 318.079L191.992 316.299L188.909 318.079Z" fill="black"/>
<path d="M185.821 316.299L188.909 318.079L191.992 316.299L188.909 314.519L185.821 316.299Z" fill="black"/>
<path d="M191.992 323.423L195.08 325.203L198.169 323.423L195.08 321.644L191.992 323.423Z" fill="black"/>
<path d="M182.732 318.079L185.82 319.864L188.909 318.079L185.82 316.299L182.732 318.079Z" fill="black"/>
<path d="M188.909 321.644L191.992 323.423L195.08 321.644L191.992 319.864L188.909 321.644Z" fill="black"/>
<path d="M185.821 323.423L188.909 325.203L191.992 323.423L188.909 321.644L185.821 323.423Z" fill="black"/>
<path d="M185.821 319.864L188.909 321.644L191.992 319.864L188.909 318.079L185.821 319.864Z" fill="black"/>
<path d="M182.732 321.644L185.82 323.423L188.909 321.644L185.82 319.864L182.732 321.644Z" fill="black"/>
<path d="M179.649 319.864L182.732 321.644L185.821 319.864L182.732 318.079L179.649 319.864Z" fill="black"/>
<path d="M185.821 326.988L188.909 328.768L191.992 326.988L188.909 325.203L185.821 326.988Z" fill="black"/>
<path d="M182.732 325.203L185.82 326.988L188.909 325.203L185.82 323.423L182.732 325.203Z" fill="black"/>
<path d="M179.649 323.423L182.732 325.203L185.821 323.423L182.732 321.644L179.649 323.423Z" fill="black"/>
<path d="M179.649 312.734L182.732 314.519L185.821 312.734L182.732 310.954L179.649 312.734Z" fill="black"/>
<path d="M173.472 309.175L176.561 310.954L179.649 309.175L176.561 307.389L173.472 309.175Z" fill="black"/>
<path d="M170.39 307.389L173.472 309.175L176.561 307.389L173.472 305.61L170.39 307.389Z" fill="black"/>
<path d="M176.561 314.519L179.65 316.299L182.732 314.519L179.65 312.734L176.561 314.519Z" fill="black"/>
<path d="M173.472 316.299L176.561 318.079L179.649 316.299L176.561 314.519L173.472 316.299Z" fill="black"/>
<path d="M173.472 312.734L176.561 314.519L179.649 312.734L176.561 310.954L173.472 312.734Z" fill="black"/>
<path d="M170.39 314.519L173.472 316.299L176.561 314.519L173.472 312.734L170.39 314.519Z" fill="black"/>
<path d="M170.39 310.954L173.472 312.734L176.561 310.954L173.472 309.175L170.39 310.954Z" fill="black"/>
<path d="M167.301 312.734L170.39 314.519L173.472 312.734L170.39 310.954L167.301 312.734Z" fill="black"/>
<path d="M170.39 318.079L173.472 319.864L176.561 318.079L173.472 316.299L170.39 318.079Z" fill="black"/>
<path d="M167.301 316.299L170.39 318.079L173.472 316.299L170.39 314.519L167.301 316.299Z" fill="black"/>
<path d="M164.212 314.519L167.301 316.299L170.389 314.519L167.301 312.734L164.212 314.519Z" fill="black"/>
<path d="M164.212 303.83L167.301 305.61L170.389 303.83L167.301 302.051L164.212 303.83Z" fill="black"/>
<path d="M158.042 300.265L161.13 302.051L164.213 300.265L161.13 298.485L158.042 300.265Z" fill="black"/>
<path d="M154.958 298.485L158.041 300.265L161.13 298.485L158.041 296.706L154.958 298.485Z" fill="black"/>
<path d="M161.13 305.61L164.213 307.389L167.301 305.61L164.213 303.83L161.13 305.61Z" fill="black"/>
<path d="M151.87 300.265L154.959 302.051L158.041 300.265L154.959 298.485L151.87 300.265Z" fill="black"/>
<path d="M158.042 307.389L161.13 309.175L164.213 307.389L161.13 305.61L158.042 307.389Z" fill="black"/>
<path d="M158.042 303.83L161.13 305.61L164.213 303.83L161.13 302.051L158.042 303.83Z" fill="black"/>
<path d="M154.958 302.051L158.041 303.83L161.13 302.051L158.041 300.265L154.958 302.051Z" fill="black"/>
<path d="M151.87 303.83L154.959 305.61L158.041 303.83L154.959 302.051L151.87 303.83Z" fill="black"/>
<path d="M148.782 302.051L151.87 303.83L154.959 302.051L151.87 300.265L148.782 302.051Z" fill="black"/>
<path d="M154.958 309.175L158.041 310.954L161.13 309.175L158.041 307.389L154.958 309.175Z" fill="black"/>
<path d="M151.87 307.389L154.959 309.175L158.041 307.389L154.959 305.61L151.87 307.389Z" fill="black"/>
<path d="M148.782 305.61L151.87 307.389L154.959 305.61L151.87 303.83L148.782 305.61Z" fill="black"/>
<path d="M145.699 303.83L148.781 305.61L151.87 303.83L148.781 302.051L145.699 303.83Z" fill="black"/>
<path d="M148.782 294.92L151.87 296.706L154.959 294.92L151.87 293.141L148.782 294.92Z" fill="black"/>
<path d="M145.699 293.141L148.781 294.92L151.87 293.141L148.781 291.361L145.699 293.141Z" fill="black"/>
<path d="M142.61 291.361L145.699 293.141L148.782 291.361L145.699 289.576L142.61 291.361Z" fill="black"/>
<path d="M145.699 296.706L148.781 298.485L151.87 296.706L148.781 294.92L145.699 296.706Z" fill="black"/>
<path d="M136.439 291.361L139.522 293.141L142.61 291.361L139.522 289.576L136.439 291.361Z" fill="black"/>
<path d="M142.61 298.485L145.699 300.265L148.782 298.485L145.699 296.706L142.61 298.485Z" fill="black"/>
<path d="M142.61 294.92L145.699 296.706L148.782 294.92L145.699 293.141L142.61 294.92Z" fill="black"/>
<path d="M139.522 296.706L142.611 298.485L145.699 296.706L142.611 294.92L139.522 296.706Z" fill="black"/>
<path d="M139.522 293.141L142.611 294.92L145.699 293.141L142.611 291.361L139.522 293.141Z" fill="black"/>
<path d="M133.351 293.141L136.439 294.92L139.522 293.141L136.439 291.361L133.351 293.141Z" fill="black"/>
<path d="M139.522 300.265L142.611 302.051L145.699 300.265L142.611 298.485L139.522 300.265Z" fill="black"/>
<path d="M136.439 298.485L139.522 300.265L142.61 298.485L139.522 296.706L136.439 298.485Z" fill="black"/>
<path d="M133.351 296.706L136.439 298.485L139.522 296.706L136.439 294.92L133.351 296.706Z" fill="black"/>
<path d="M130.262 294.92L133.351 296.706L136.439 294.92L133.351 293.141L130.262 294.92Z" fill="black"/>
<path d="M191.992 316.299L195.08 318.079L198.169 316.299L195.08 314.519L191.992 316.299Z" fill="black"/>
<path d="M188.909 314.519L191.992 316.299L195.08 314.519L191.992 312.734L188.909 314.519Z" fill="black"/>
<path d="M191.992 309.175L195.08 310.954L198.169 309.175L195.08 307.389L191.992 309.175Z" fill="black"/>
<path d="M188.909 310.954L191.992 312.734L195.08 310.954L191.992 309.175L188.909 310.954Z" fill="black"/>
<path d="M182.732 314.519L185.82 316.299L188.909 314.519L185.82 312.734L182.732 314.519Z" fill="black"/>
<path d="M176.561 318.079L179.65 319.864L182.732 318.079L179.65 316.299L176.561 318.079Z" fill="black"/>
<path d="M173.472 319.864L176.561 321.644L179.649 319.864L176.561 318.079L173.472 319.864Z" fill="black"/>
<path d="M185.821 312.734L188.909 314.519L191.992 312.734L188.909 310.954L185.821 312.734Z" fill="black"/>
<path d="M182.732 310.954L185.82 312.734L188.909 310.954L185.82 309.175L182.732 310.954Z" fill="black"/>
<path d="M176.561 307.389L179.65 309.175L182.732 307.389L179.65 305.61L176.561 307.389Z" fill="black"/>
<path d="M173.472 305.61L176.561 307.389L179.649 305.61L176.561 303.83L173.472 305.61Z" fill="black"/>
<path d="M167.301 302.051L170.39 303.83L173.472 302.051L170.39 300.265L167.301 302.051Z" fill="black"/>
<path d="M158.042 296.706L161.13 298.485L164.213 296.706L161.13 294.92L158.042 296.706Z" fill="black"/>
<path d="M167.301 287.796L170.39 289.576L173.472 287.796L170.39 286.016L167.301 287.796Z" fill="black"/>
<path d="M164.212 289.576L167.301 291.361L170.389 289.576L167.301 287.796L164.212 289.576Z" fill="black"/>
<path d="M161.13 291.361L164.213 293.141L167.301 291.361L164.213 289.576L161.13 291.361Z" fill="black"/>
<path d="M158.042 293.141L161.13 294.92L164.213 293.141L161.13 291.361L158.042 293.141Z" fill="black"/>
<path d="M148.782 298.485L151.87 300.265L154.959 298.485L151.87 296.706L148.782 298.485Z" fill="black"/>
<path d="M145.699 300.265L148.781 302.051L151.87 300.265L148.781 298.485L145.699 300.265Z" fill="black"/>
<path d="M142.61 302.051L145.699 303.83L148.782 302.051L145.699 300.265L142.61 302.051Z" fill="black"/>
<path d="M154.958 294.92L158.041 296.706L161.13 294.92L158.041 293.141L154.958 294.92Z" fill="black"/>
<path d="M151.87 293.141L154.959 294.92L158.041 293.141L154.959 291.361L151.87 293.141Z" fill="black"/>
<path d="M148.782 291.361L151.87 293.141L154.959 291.361L151.87 289.576L148.782 291.361Z" fill="black"/>
<path d="M145.699 289.576L148.781 291.361L151.87 289.576L148.781 287.796L145.699 289.576Z" fill="black"/>
<path d="M179.649 330.548L182.732 332.333L185.821 330.548L182.732 328.768L179.649 330.548Z" fill="black"/>
<path d="M176.561 328.768L179.65 330.547L182.732 328.768L179.65 326.988L176.561 328.768Z" fill="black"/>
<path d="M173.472 326.988L176.561 328.768L179.649 326.988L176.561 325.203L173.472 326.988Z" fill="black"/>
<path d="M170.39 325.203L173.472 326.988L176.561 325.203L173.472 323.423L170.39 325.203Z" fill="black"/>
<path d="M176.561 332.333L179.65 334.112L182.732 332.333L179.65 330.548L176.561 332.333Z" fill="black"/>
<path d="M167.301 326.988L170.39 328.768L173.472 326.988L170.39 325.203L167.301 326.988Z" fill="black"/>
<path d="M173.472 334.112L176.561 335.892L179.649 334.112L176.561 332.333L173.472 334.112Z" fill="black"/>
<path d="M164.212 328.768L167.301 330.547L170.389 328.768L167.301 326.988L164.212 328.768Z" fill="black"/>
<path d="M170.39 335.892L173.472 337.677L176.561 335.892L173.472 334.112L170.39 335.892Z" fill="black"/>
<path d="M167.301 334.112L170.39 335.892L173.472 334.112L170.39 332.333L167.301 334.112Z" fill="black"/>
<path d="M164.212 332.333L167.301 334.112L170.389 332.333L167.301 330.548L164.212 332.333Z" fill="black"/>
<path d="M161.13 330.548L164.213 332.333L167.301 330.548L164.213 328.768L161.13 330.548Z" fill="black"/>
<path d="M164.212 321.644L167.301 323.423L170.389 321.644L167.301 319.864L164.212 321.644Z" fill="black"/>
<path d="M161.13 319.864L164.213 321.644L167.301 319.864L164.213 318.079L161.13 319.864Z" fill="black"/>
<path d="M154.958 316.299L158.041 318.079L161.13 316.299L158.041 314.519L154.958 316.299Z" fill="black"/>
<path d="M158.042 325.203L161.13 326.988L164.213 325.203L161.13 323.423L158.042 325.203Z" fill="black"/>
<path d="M158.042 321.644L161.13 323.423L164.213 321.644L161.13 319.864L158.042 321.644Z" fill="black"/>
<path d="M154.958 323.423L158.041 325.203L161.13 323.423L158.041 321.644L154.958 323.423Z" fill="black"/>
<path d="M154.958 319.864L158.041 321.644L161.13 319.864L158.041 318.079L154.958 319.864Z" fill="black"/>
<path d="M148.782 319.864L151.87 321.644L154.959 319.864L151.87 318.079L148.782 319.864Z" fill="black"/>
<path d="M154.958 326.988L158.041 328.768L161.13 326.988L158.041 325.203L154.958 326.988Z" fill="black"/>
<path d="M151.87 325.203L154.959 326.988L158.041 325.203L154.959 323.423L151.87 325.203Z" fill="black"/>
<path d="M145.699 310.954L148.781 312.734L151.87 310.954L148.781 309.175L145.699 310.954Z" fill="black"/>
<path d="M142.61 309.175L145.699 310.954L148.782 309.175L145.699 307.389L142.61 309.175Z" fill="black"/>
<path d="M145.699 314.519L148.781 316.299L151.87 314.519L148.781 312.734L145.699 314.519Z" fill="black"/>
<path d="M142.61 316.299L145.699 318.079L148.782 316.299L145.699 314.519L142.61 316.299Z" fill="black"/>
<path d="M139.522 314.519L142.611 316.299L145.699 314.519L142.611 312.734L139.522 314.519Z" fill="black"/>
<path d="M136.439 312.734L139.522 314.519L142.61 312.734L139.522 310.954L136.439 312.734Z" fill="black"/>
<path d="M133.351 310.954L136.439 312.734L139.522 310.954L136.439 309.175L133.351 310.954Z" fill="black"/>
<path d="M139.522 318.079L142.611 319.864L145.699 318.079L142.611 316.299L139.522 318.079Z" fill="black"/>
<path d="M198.169 287.796L201.252 289.576L204.34 287.796L201.252 286.016L198.169 287.796Z" fill="black"/>
<path d="M191.992 291.361L195.08 293.141L198.169 291.361L195.08 289.576L191.992 291.361Z" fill="black"/>
<path d="M188.909 293.141L191.992 294.92L195.08 293.141L191.992 291.361L188.909 293.141Z" fill="black"/>
<path d="M195.081 300.265L198.169 302.051L201.252 300.265L198.169 298.485L195.081 300.265Z" fill="black"/>
<path d="M191.992 298.485L195.08 300.265L198.169 298.485L195.08 296.706L191.992 298.485Z" fill="black"/>
<path d="M182.732 293.141L185.82 294.92L188.909 293.141L185.82 291.361L182.732 293.141Z" fill="black"/>
<path d="M173.472 287.796L176.561 289.576L179.649 287.796L176.561 286.016L173.472 287.796Z" fill="black"/>
<path d="M182.732 296.706L185.82 298.485L188.909 296.706L185.82 294.92L182.732 296.706Z" fill="black"/>
<path d="M179.649 298.485L182.732 300.265L185.821 298.485L182.732 296.706L179.649 298.485Z" fill="black"/>
<path d="M176.561 300.265L179.65 302.051L182.732 300.265L179.65 298.485L176.561 300.265Z" fill="black"/>
<path d="M173.472 302.051L176.561 303.83L179.649 302.051L176.561 300.265L173.472 302.051Z" fill="black"/>
<path d="M167.301 305.61L170.39 307.389L173.472 305.61L170.39 303.83L167.301 305.61Z" fill="black"/>
<path d="M161.13 309.175L164.213 310.954L167.301 309.175L164.213 307.389L161.13 309.175Z" fill="black"/>
<path d="M158.042 310.954L161.13 312.734L164.213 310.954L161.13 309.175L158.042 310.954Z" fill="black"/>
<path d="M151.87 314.519L154.959 316.299L158.041 314.519L154.959 312.734L151.87 314.519Z" fill="black"/>
<path d="M164.212 318.079L167.301 319.864L170.389 318.079L167.301 316.299L164.212 318.079Z" fill="black"/>
<path d="M161.13 316.299L164.213 318.079L167.301 316.299L164.213 314.519L161.13 316.299Z" fill="black"/>
<path d="M158.042 314.519L161.13 316.299L164.213 314.519L161.13 312.734L158.042 314.519Z" fill="black"/>
<path d="M151.87 310.954L154.959 312.734L158.041 310.954L154.959 309.175L151.87 310.954Z" fill="black"/>
<path d="M145.699 307.389L148.781 309.175L151.87 307.389L148.781 305.61L145.699 307.389Z" fill="black"/>
<path d="M142.61 305.61L145.699 307.389L148.782 305.61L145.699 303.83L142.61 305.61Z" fill="black"/>
<path d="M154.958 312.734L158.041 314.519L161.13 312.734L158.041 310.954L154.958 312.734Z" fill="black"/>
<path d="M148.782 316.299L151.87 318.079L154.959 316.299L151.87 314.519L148.782 316.299Z" fill="black"/>
<path d="M145.699 318.079L148.781 319.864L151.87 318.079L148.781 316.299L145.699 318.079Z" fill="black"/>
<path d="M136.439 316.299L139.522 318.079L142.61 316.299L139.522 314.519L136.439 316.299Z" fill="black"/>
<path d="M130.262 312.734L133.351 314.519L136.439 312.734L133.351 310.954L130.262 312.734Z" fill="black"/>
<path d="M133.351 303.83L136.439 305.61L139.522 303.83L136.439 302.051L133.351 303.83Z" fill="black"/>
<path d="M130.262 302.051L133.351 303.83L136.439 302.051L133.351 300.265L130.262 302.051Z" fill="black"/>
<path d="M127.179 300.265L130.262 302.051L133.35 300.265L130.262 298.485L127.179 300.265Z" fill="black"/>
<path d="M124.091 298.485L127.179 300.265L130.262 298.485L127.179 296.706L124.091 298.485Z" fill="black"/>
<path d="M130.262 305.61L133.351 307.389L136.439 305.61L133.351 303.83L130.262 305.61Z" fill="black"/>
<path d="M121.002 300.265L124.091 302.051L127.179 300.265L124.091 298.485L121.002 300.265Z" fill="black"/>
<path d="M127.179 307.389L130.262 309.175L133.35 307.389L130.262 305.61L127.179 307.389Z" fill="black"/>
<path d="M117.92 302.051L121.003 303.83L124.091 302.051L121.003 300.265L117.92 302.051Z" fill="black"/>
<path d="M124.091 309.175L127.179 310.954L130.262 309.175L127.179 307.389L124.091 309.175Z" fill="black"/>
<path d="M121.002 307.389L124.091 309.175L127.179 307.389L124.091 305.61L121.002 307.389Z" fill="black"/>
<path d="M117.92 305.61L121.003 307.389L124.091 305.61L121.003 303.83L117.92 305.61Z" fill="black"/>
<path d="M114.831 303.83L117.92 305.61L121.002 303.83L117.92 302.051L114.831 303.83Z" fill="black"/>
<g clip-path="url(#clip0_6766_3668)">
<path d="M221.252 74.6684C221.506 74.8503 221.536 75.2107 221.327 75.4413C221.139 75.6492 220.823 75.6748 220.586 75.523C220.436 75.4266 220.289 75.3435 220.147 75.2739C219.876 75.1402 219.624 75.0511 219.392 75.0066C219.161 74.9621 218.955 74.964 218.775 75.0125C218.593 75.0569 218.442 75.1456 218.321 75.2786C218.107 75.5148 218.044 75.8377 218.13 76.2471C218.214 76.6539 218.451 77.1264 218.84 77.6646C219.226 78.2002 219.766 78.78 220.459 79.4041C221.163 80.0389 221.804 80.5222 222.38 80.8539C222.955 81.1815 223.447 81.3655 223.857 81.4059C224.265 81.4422 224.576 81.3429 224.789 81.1081C224.906 80.9779 224.981 80.8238 225.011 80.6458C225.04 80.4637 225.023 80.2625 224.961 80.0422C224.901 79.8206 224.794 79.5841 224.64 79.3327C224.561 79.2015 224.469 79.0684 224.364 78.9334C224.191 78.7102 224.187 78.3932 224.379 78.1864C224.589 77.9588 224.951 77.9542 225.154 78.1895C225.404 78.4786 225.627 78.7723 225.825 79.0706C226.12 79.514 226.343 79.9474 226.494 80.3706C226.641 80.7911 226.701 81.1818 226.674 81.5426C226.644 81.9007 226.511 82.2092 226.277 82.4681C225.931 82.8501 225.435 83.0223 224.788 82.9845C224.142 82.9468 223.387 82.6954 222.523 82.2304C221.658 81.7655 220.732 81.0872 219.742 80.1957C218.749 79.3014 217.979 78.4499 217.432 77.641C216.882 76.8293 216.555 76.1047 216.452 75.4671C216.348 74.8294 216.468 74.321 216.812 73.9418C217.031 73.6999 217.306 73.5398 217.639 73.4615C217.971 73.3832 218.35 73.3883 218.776 73.4768C219.2 73.5627 219.66 73.7343 220.156 73.9916C220.51 74.1723 220.875 74.3979 221.252 74.6684Z" fill="white"/>
<path d="M222.421 77.4303C222.137 77.1738 222.114 76.736 222.371 76.4524L222.395 76.4252C222.652 76.1417 223.09 76.1197 223.375 76.3762C223.659 76.6328 223.682 77.0706 223.426 77.3542L223.401 77.3814C223.144 77.6649 222.706 77.6869 222.421 77.4303Z" fill="white"/>
</g>
<defs>
<clipPath id="clip0_6766_3668">
<rect width="8.25786" height="13.8855" fill="white" transform="matrix(0.335147 -0.942166 0.942113 0.335296 213.988 79.2994)"/>
</clipPath>
</defs>
</svg>
